<svg xmlns="http://www.w3.org/2000/svg" version="1.1" xmlns:xlink="http://www.w3.org/1999/xlink" xmlns:svgjs="http://svgjs.dev/svgjs" width="1000" height="330" viewBox="0 0 1000 330"><g transform="matrix(1,0,0,1,-0.6060606060606233,0.17565802535807507)"><svg viewBox="0 0 396 131" data-background-color="#ffffff" preserveAspectRatio="xMidYMid meet" height="330" width="1000" xmlns="http://www.w3.org/2000/svg" xmlns:xlink="http://www.w3.org/1999/xlink"><g id="tight-bounds" transform="matrix(1,0,0,1,0.2400000000000091,-0.06973091309669144)"><svg viewBox="0 0 395.52 131.13946182619338" height="131.13946182619338" width="395.52"><g><svg viewBox="0 0 395.52 131.13946182619338" height="131.13946182619338" width="395.52"><g><svg viewBox="0 0 395.52 131.13946182619338" height="131.13946182619338" width="395.52"><g id="textblocktransform"><svg viewBox="0 0 395.52 131.13946182619338" height="131.13946182619338" width="395.52" id="textblock"><g><rect width="395.52" height="99.0843358629131" fill="none" stroke-width="9.018103199999999" stroke="#ffa458" data-fill-palette-color="none" data-stroke-palette-color="tertiary"></rect><rect width="395.52" height="32.0551259632803" y="99.0843358629131" fill="#ffa458" data-fill-palette-color="tertiary"></rect></g><g><svg viewBox="0 0 395.52 99.0843358629131" height="99.0843358629131" width="395.52"><g transform="matrix(1,0,0,1,23.607599999999998,23.607599999999998)"><svg width="348.3048" viewBox="2.25 -35.5 245.0800018310547 36.5" height="51.8691358629131" data-palette-color="#ffa458"><path d="M12-35L21.15-35 21.15-30.6 12.3-30.6Q7.25-30.6 7.25-26.5L7.25-26.5Q7.25-24.3 9.47-22.78 11.7-21.25 15.5-19.85L15.5-19.85Q17.2-19.2 18.4-18.53 19.6-17.85 20.8-16.75 22-15.65 22.6-13.93 23.2-12.2 23.2-9.95L23.2-9.95Q23.2-7.45 22.15-5.48 21.1-3.5 19.45-2.38 17.8-1.25 16.07-0.68 14.35-0.1 12.7-0.05L12.7-0.05Q12 0 10.7 0L10.7 0 2.9 0 2.9-4.4 10.55-4.4Q13.95-4.4 16.1-5.83 18.25-7.25 18.25-10L18.25-10Q18.25-11.35 17.65-12.38 17.05-13.4 15.93-14.15 14.8-14.9 13.63-15.45 12.45-16 10.8-16.6L10.8-16.6Q10.35-16.75 10.1-16.85L10.1-16.85Q2.25-19.85 2.25-26.65L2.25-26.65Q2.25-30.85 4.95-32.93 7.65-35 12-35L12-35ZM33.4-35L33.4 0 28.7 0 28.7-35 33.4-35ZM52.55-26.3L56.65-10.85 56.95-10.85 61.05-26.3Q62.35-31.3 65.05-33.15 67.75-35 73.2-35L73.2-35 73.2 0 68.5 0 68.5-29.7Q67.2-29.15 66.52-28.15 65.84-27.15 65.25-25.15L65.25-25.15 59-3.7 54.59-3.7 48.3-25.15Q47.7-27.2 47.05-28.18 46.4-29.15 45.1-29.7L45.1-29.7 45.1 0 40.4 0 40.4-35Q45.85-35 48.52-33.13 51.2-31.25 52.55-26.3L52.55-26.3ZM84.64-23.2L84.64 0 79.94 0 79.94-23Q79.94-28.9 83.12-32.2 86.29-35.5 91.54-35.5L91.54-35.5Q97.14-35.5 100.22-32.3 103.29-29.1 103.29-24.15L103.29-24.15Q103.29-21.05 102.17-18.75 101.04-16.45 99.14-15.2 97.24-13.95 95.09-13.35 92.94-12.75 90.59-12.75L90.59-12.75 86.84-12.75 86.84-17.15 91.14-17.15Q94.49-17.15 96.42-19.18 98.34-21.2 98.34-24.25L98.34-24.25Q98.34-27.25 96.57-29.18 94.79-31.1 91.49-31.1L91.49-31.1Q88.29-31.1 86.47-28.93 84.64-26.75 84.64-23.2L84.64-23.2ZM119.34-4.4L127.89-4.4 127.89 0 120.59 0Q118.54 0 117.37-0.08 116.19-0.15 114.44-0.68 112.69-1.2 111.49-2.25L111.49-2.25Q109.64-3.95 109.09-6.33 108.54-8.7 108.54-11.9L108.54-11.9 108.54-35 113.24-35 113.24-12Q113.24-9.1 113.89-7.45L113.89-7.45Q115.19-4.4 119.34-4.4L119.34-4.4ZM152.29-4.4L152.29 0 132.39 0 132.39-26.65Q132.39-30.35 134.74-32.6L134.74-32.6Q136.34-34.1 138.34-34.55 140.34-35 143.24-35L143.24-35 152.29-35 152.29-30.6 142.59-30.6Q137.09-30.6 137.09-26L137.09-26 137.09-20.3 148.64-20.3 148.64-15.9 137.09-15.9 137.09-4.4 152.29-4.4ZM194.98-4.5L194.98-4.5Q198.78-8.3 199.23-16.4L199.23-16.4 200.23-35 204.73-35 203.73-16.2Q203.38-9.6 201.41-5.7 199.43-1.8 194.88 1L194.88 1Q190.88-1.85 189.33-6.03 187.78-10.2 186.93-17.35L186.93-17.35 186.73-17.35Q186.33-9.9 184.81-6.25 183.28-2.6 178.78 1L178.78 1Q174.23-1.8 172.26-5.7 170.28-9.6 169.93-16.2L169.93-16.2 168.93-35 173.43-35 174.43-16.4Q174.88-8.3 178.68-4.5L178.68-4.5Q181.13-6.6 182.33-10.78 183.53-14.95 184.58-24L184.58-24 189.08-24Q190.48-16.2 191.63-11.9 192.78-7.6 193.41-6.45 194.03-5.3 194.98-4.5ZM215.68-35L215.68 0 210.98 0 210.98-35 215.68-35ZM227.38-30.6L227.38 0 222.68 0 222.68-35 235.03-35Q241.23-35 244.28-32.23 247.33-29.45 247.33-23.5L247.33-23.5 247.33 0 242.63 0 242.63-24.15Q242.63-27.55 240.55-29.08 238.48-30.6 235.08-30.6L235.08-30.6 227.38-30.6Z" opacity="1" transform="matrix(1,0,0,1,0,0)" fill="#ffa458" class="wordmark-text-0" data-fill-palette-color="primary" id="text-0"></path></svg></g></svg></g></svg></g></svg></g><g></g></svg></g><defs></defs></svg><rect width="395.52" height="131.13946182619338" fill="none" stroke="none" visibility="hidden"></rect></g></svg></g></svg>